<svg xmlns="http://www.w3.org/2000/svg" viewBox="0 0 240 180">
  <defs>
    <linearGradient id="tentLeftFace" x1="0" y1="0" x2="1" y2="1">
      <stop offset="0%" stop-color="#F2874A"/>
      <stop offset="100%" stop-color="#C9501C"/>
    </linearGradient>
    <linearGradient id="tentRightFace" x1="0" y1="0" x2="1" y2="1">
      <stop offset="0%" stop-color="#D9622A"/>
      <stop offset="100%" stop-color="#9E3F17"/>
    </linearGradient>
    <linearGradient id="tentFrontFace" x1="0" y1="0" x2="0" y2="1">
      <stop offset="0%" stop-color="#EE7B3E"/>
      <stop offset="100%" stop-color="#B94A1E"/>
    </linearGradient>
    <linearGradient id="groundShadow" x1="0" y1="0" x2="0" y2="1">
      <stop offset="0%" stop-color="#000000" stop-opacity="0.35"/>
      <stop offset="100%" stop-color="#000000" stop-opacity="0"/>
    </linearGradient>
    <linearGradient id="doorGrad" x1="0" y1="0" x2="0" y2="1">
      <stop offset="0%" stop-color="#241A12"/>
      <stop offset="100%" stop-color="#3A2A1C"/>
    </linearGradient>
  </defs>

  <ellipse cx="120" cy="168" rx="95" ry="10" fill="url(#groundShadow)"/>

  <line x1="120" y1="30" x2="205" y2="60" stroke="#8A7B57" stroke-width="2"/>
  <circle cx="205" cy="60" r="3" fill="#5C4530"/>

  <polygon points="120,26 205,160 120,160" fill="url(#tentRightFace)"/>
  <polygon points="120,26 35,160 120,160" fill="url(#tentLeftFace)"/>
  <line x1="120" y1="26" x2="120" y2="160" stroke="#FFD9B0" stroke-width="1.5" stroke-opacity="0.5"/>

  <polygon points="120,50 168,160 72,160" fill="url(#tentFrontFace)"/>
  <path d="M120,88 C104,88 92,115 92,160 L148,160 C148,115 136,88 120,88 Z" fill="url(#doorGrad)"/>
  <path d="M120,88 C104,88 92,115 92,160" fill="none" stroke="#E9DFC7" stroke-width="1.2" stroke-dasharray="2 3" opacity="0.7"/>
  <path d="M120,88 C136,88 148,115 148,160" fill="none" stroke="#E9DFC7" stroke-width="1.2" stroke-dasharray="2 3" opacity="0.7"/>

  <rect x="112" y="18" width="16" height="10" rx="2" fill="#3A2A1C"/>
  <rect x="115" y="14" width="10" height="6" rx="2" fill="#4E3A24"/>

  <line x1="120" y1="26" x2="60" y2="150" stroke="#7A3010" stroke-width="1" stroke-dasharray="3 4" opacity="0.5"/>
  <line x1="120" y1="26" x2="180" y2="150" stroke="#7A3010" stroke-width="1" stroke-dasharray="3 4" opacity="0.5"/>

  <polygon points="35,160 205,160 205,168 35,168" fill="#7A3010" opacity="0.6"/>

  <line x1="35" y1="160" x2="14" y2="172" stroke="#8A7B57" stroke-width="2.5"/>
  <line x1="205" y1="160" x2="226" y2="172" stroke="#8A7B57" stroke-width="2.5"/>
  <circle cx="14" cy="172" r="2.5" fill="#5C4530"/>
  <circle cx="226" cy="172" r="2.5" fill="#5C4530"/>
</svg>
